# AST/ASF file generated using VICON BodyLanguage
# -----------------------------------------------
:version 1.10
:name VICON
:units
  mass 1.0
  length 0.45
  angle deg
:documentation
   .ast/.asf automatically generated from VICON data using
   VICON BodyBuilder and BodyLanguage model FoxedUp or BRILLIANT.MOD
:root
   order TX TY TZ RX RY RZ
   axis XYZ
   position 0 0 0  
   orientation 0 0 0 
:bonedata
  begin
     id 1 
     name lhipjoint
     direction 0.541323 -0.757556 0.364798 
     length 2.47576 
     axis 0 0 0  XYZ
  end
  begin
     id 2 
     name lfemur
     direction 0.34202 -0.939693 0  
     length 7.46493  
     axis 0 0 20  XYZ
    dof rx ry rz
    limits (-160.0 20.0)
           (-70.0 70.0)
           (-60.0 70.0)
  end
  begin
     id 3 
     name ltibia
     direction 0.34202 -0.939693 0   
     length 7.73805   
     axis 0 0 20   XYZ
    dof rx
    limits (-10.0 170.0)
  end
  begin
     id 4 
     name lfoot
     direction 0.107174 -0.294458 0.949636   
     length 2.25864   
     axis -90 7.62852e-016 20   XYZ
    dof rx rz
    limits (-45.0 90.0)
           (-70.0 20.0)
  end
  begin
     id 5 
     name ltoes
     direction 1.53606e-011 -4.21934e-011 1   
     length 1.12451   
     axis -90 7.62852e-016 20   XYZ
    dof rx
    limits (-90.0 20.0)
  end
  begin
     id 6 
     name rhipjoint
     direction -0.524745 -0.766967 0.36933   
     length 2.44538  
     axis 0 0 0  XYZ 
  end
  begin
     id 7 
     name rfemur
     direction -0.34202 -0.939693 0   
     length 7.61604   
     axis 0 0 -20   XYZ
    dof rx ry rz
    limits (-160.0 20.0)
           (-70.0 70.0)
           (-70.0 60.0)
  end
  begin
     id 8 
     name rtibia
     direction -0.34202 -0.939693 0   
     length 7.61056   
     axis 0 0 -20   XYZ
    dof rx
    limits (-10.0 170.0)
 end
 begin
     id 9 
     name rfoot
     direction -0.12616 -0.346623 0.929482   
     length 2.46372  
     axis -90 -7.62852e-016 -20   XYZ
    dof rx rz
    limits (-45.0 90.0)
           (-20.0 70.0)
  end
  begin
     id 10 
     name rtoes
     direction -1.53531e-011 -4.22004e-011 1   
     length 1.21611   
     axis -90 -7.62852e-016 -20   XYZ
    dof rx
    limits (-90.0 20.0)
  end
  begin
     id 11 
     name lowerback
     direction -0.000778023 0.997293 -0.0735223   
     length 2.06139   
     axis 0 0 0   XYZ
    dof rx ry rz
    limits (-20.0 45.0)
           (-30.0 30.0)
           (-30.0 30.0)
  end
  begin
     id 12 
     name upperback
     direction 0.0222598 0.999722 -0.0078355   
     length 2.06383   
     axis 0 0 0   XYZ
    dof rx ry rz
    limits (-20.0 45.0)
           (-30.0 30.0)
           (-30.0 30.0)
  end
  begin
     id 13 
     name thorax
     direction 0.0219654 0.999405 0.0265994   
     length 2.07163   
     axis 0 0 0   XYZ
    dof rx ry rz
    limits (-20.0 45.0)
           (-30.0 30.0)
           (-30.0 30.0)
  end
  begin
     id 14 
     name lowerneck
     direction 0.0213282 0.988147 0.15202   
     length 1.75969   
     axis 0 0 0   XYZ
    dof rx ry rz
    limits (-20.0 45.0)
           (-30.0 30.0)
           (-30.0 30.0)
  end
  begin
     id 15 
     name upperneck
     direction -0.0546456 0.982624 -0.177379   
     length 1.79244   
     axis 0 0 0   XYZ
    dof rx ry rz
    limits (-20.0 45.0)
           (-30.0 30.0)
           (-30.0 30.0)
  end
  begin
     id 16
     name head
     direction -0.0199987 0.996855 -0.076686  
     length 1.80555  
     axis 0 0 0   XYZ
    dof rx ry rz
    limits (-20.0 45.0)
           (-30.0 30.0)
           (-30.0 30.0)
  end
  begin
     id 17 
     name lclavicle
     direction 0.929565 0.363219 -0.063096  
     length 3.55722  
     axis 0 0 0   XYZ
    dof ry rz
    limits (-20.0 10.0)
           (0.0 20.0)
  end
  begin
     id 18 
     name lhumerus
     direction 1 -4.48993e-011 -2.36203e-027   
     length 4.92785   
     axis 180 -30 -90   XYZ
    dof rx ry rz
    limits (-60.0 90.0)
           (-90.0 90.0)
           (-90.0 90.0)
  end
  begin
     id 19
     name lradius
     direction 1 -4.48947e-011 2.02997e-027   
     length 3.44052   
     axis 180 -30 -90   XYZ
    dof rx
    limits (-10.0 170.0)
  end
  begin
     id 20
     name lwrist
     direction 1 -4.48962e-011 1.45991e-027   
     length 1.72026   
     axis 1.49639e-024 90 90   XYZ
    dof ry
    limits (-180.0 0.0)
 end
  begin
     id 21 
     name lhand
     direction 1 -4.48984e-011 2.91906e-027   
     length 0.654326   
     axis -1.863e-015 90 90   XYZ
    dof rx rz
    limits (-90.0 90.0)
           (-45.0 45.0)
  end
  begin
     id 22 
     name lfingers
     direction 1 -4.48961e-011 5.83968e-027   
     length 0.527534   
     axis -3.72598e-015 90 90   XYZ
    dof rx
    limits (0.0 90.0)
  end
  begin
     id 23
     name lthumb
     direction 0.707107 -6.34963e-011 0.707107   
     length 0.757437   
     axis -90 45 -6.68868e-015   XYZ
    dof rx rz
    limits (-45.0 45.0)
           (-45.0 45.0)
  end
  begin
     id 24 
     name rclavicle
     direction -0.902944 0.422599 -0.0781198   
     length 3.54432  
     axis 0 0 0   XYZ 
    dof ry rz
    limits (-10.0 20.0)
           (-20.0 0.0)
  end
  begin
     id 25 
     name rhumerus
     direction -1 -4.48953e-011 -4.75835e-028  
     length 5.09181   
     axis 180 30 90   XYZ
    dof rx ry rz
    limits (-90.0 60.0)
           (-90.0 90.0)
           (-90.0 90.0)
  end
  begin
     id 26 
     name rradius
     direction -1 -4.48986e-011 -3.25889e-027   
     length 3.49865   
     axis 180 30 90   XYZ
    dof rx
    limits (-10.0 170.0)
  end
  begin
     id 27 
     name rwrist
     direction -1 -4.48963e-011 1.45989e-027   
     length 1.74933   
     axis 1.49639e-024 -90 -90   XYZ
    dof ry
    limits (-180.0 0.0)
  end
  begin
     id 28
     name rhand
     direction -1 -4.49003e-011 2.91844e-027   
     length 0.66641   
     axis -1.863e-015 -90 -90   XYZ
    dof rx rz
    limits (-90.0 90.0)
           (-45.0 45.0)
  end
  begin
     id 29
     name rfingers
     direction -1 -4.48973e-011 5.83886e-027   
     length 0.537277   
     axis -3.72598e-015 -90 -90   XYZ
    dof rx
    limits (0.0 90.0)
  end
  begin
     id 30
     name rthumb
     direction -0.707107 -6.34976e-011 0.707107   
     length 0.771425   
     axis -90 -45 6.68868e-015   XYZ
    dof rx rz
    limits (-45.0 45.0)
           (-45.0 45.0)
  end
:hierarchy
  begin
    root lhipjoint rhipjoint lowerback
    lhipjoint lfemur
    lfemur ltibia
    ltibia lfoot
    lfoot ltoes
    rhipjoint rfemur
    rfemur rtibia
    rtibia rfoot
    rfoot rtoes
    lowerback upperback
    upperback thorax
    thorax lowerneck lclavicle rclavicle
    lowerneck upperneck
    upperneck head
    lclavicle lhumerus
    lhumerus lradius
    lradius lwrist
    lwrist lhand lthumb
    lhand lfingers
    rclavicle rhumerus
    rhumerus rradius
    rradius rwrist
    rwrist rhand rthumb
    rhand rfingers
  end

#!OML:ASF H:\LiuWeirdWalks\Patient Classification 1\Patient 1\Session 1\male.ASF
:FULLY-SPECIFIED
:DEGREES
149
root 0.103969 18.0481 -30.9739 2.66579 8.69414 -2.18376
lowerback 5.17621 1.06196 -0.03122
upperback -0.298454 1.50099 2.57844
thorax -3.28168 0.771215 2.55856
lowerneck -25.2051 0.420005 6.20198
upperneck 29.742 0.776904 -7.92268
head 14.5311 -0.102572 -4.18233
rclavicle -2.85256e-014 1.39149e-014
rhumerus -29.5268 -18.5567 -70.6755
rradius 27.4655
rwrist -5.96917
rhand -21.8163 2.12406
rfingers 7.12502
rthumb 4.58611 -27.8063
lclavicle -2.85256e-014 1.39149e-014
lhumerus -33.0905 16.5686 79.2156
lradius 23.3478
lwrist 3.76895
lhand -11.4022 -1.88565
lfingers 7.12502
lthumb 14.633 27.5781
rfemur -7.366 -5.20986 20.6366
rtibia 25.9446
rfoot -11.371 -29.0076
rtoes 0.580185
lfemur -7.52401 -4.00287 -14.1208
ltibia 22.1985
lfoot -9.06099 14.8395
ltoes -9.5977
150
root 0.0978647 18.0471 -30.9753 2.65227 8.50472 -2.17342
lowerback 5.18974 0.979712 -0.0098916
upperback -0.244821 1.39067 2.55612
thorax -3.22767 0.715038 2.53246
lowerneck -25.5004 0.399121 6.34657
upperneck 29.7877 0.698236 -8.01661
head 14.608 -0.136988 -4.27105
rclavicle -1.16289e-014 -5.56597e-015
rhumerus -29.5448 -19.1302 -70.4017
rradius 27.1316
rwrist -5.72236
rhand -21.8718 2.0646
rfingers 7.12502
rthumb 4.53254 -27.8669
lclavicle -1.16289e-014 -5.56597e-015
lhumerus -32.9944 16.4372 79.128
lradius 23.5935
lwrist 3.86727
lhand -11.1973 -2.00993
lfingers 7.12502
lthumb 14.8304 27.4394
rfemur -7.40211 -5.12713 20.6386
rtibia 25.9937
rfoot -11.3938 -28.9279
rtoes 0.601901
lfemur -7.46453 -3.93653 -14.1189
ltibia 22.178
lfoot -9.04693 14.938
ltoes -9.60262
151
root 0.0919753 18.0462 -30.9768 2.64007 8.30034 -2.15116
lowerback 5.21908 0.901529 0.0141073
upperback -0.192903 1.28601 2.52753
thorax -3.18453 0.661661 2.49761
lowerneck -25.773 0.400837 6.49249
upperneck 29.8099 0.645198 -8.09243
head 14.6719 -0.157487 -4.34612
rclavicle 2.52953e-014 -1.70955e-014
rhumerus -29.5804 -19.6579 -70.1324
rradius 26.8256
rwrist -5.47956
rhand -21.9437 1.99925
rfingers 7.12502
rthumb 4.46312 -27.9337
lclavicle 2.52953e-014 -1.70955e-014
lhumerus -32.8821 16.3401 79.0167
lradius 23.8263
lwrist 3.94743
lhand -11.047 -2.14088
lfingers 7.12502
lthumb 14.9752 27.2977
rfemur -7.44014 -5.04237 20.6238
rtibia 26.0443
rfoot -11.413 -28.8321
rtoes 0.61842
lfemur -7.40038 -3.86798 -14.1337
ltibia 22.1543
lfoot -9.03361 15.0469
ltoes -9.60165
152
root 0.0861276 18.0455 -30.9784 2.63054 8.08133 -2.12948
lowerback 5.26158 0.830528 0.0453804
upperback -0.149368 1.19182 2.49892
thorax -3.15795 0.61353 2.4576
lowerneck -26.045 0.42114 6.63889
upperneck 29.8424 0.616344 -8.16073
head 14.7427 -0.166172 -4.41431
rclavicle 7.8023e-015 1.51076e-014
rhumerus -29.6398 -20.1766 -69.8449
rradius 26.5258
rwrist -5.20697
rhand -22.0147 1.93838
rfingers 7.12502
rthumb 4.39454 -27.996
lclavicle 7.8023e-015 1.51076e-014
lhumerus -32.7691 16.266 78.8858
lradius 24.0579
lwrist 4.02447
lhand -10.9451 -2.21348
lfingers 7.12502
lthumb 15.0733 27.2177
rfemur -7.48249 -4.95129 20.6079
rtibia 26.0922
rfoot -11.4273 -28.7259
rtoes 0.635328
lfemur -7.33756 -3.80412 -14.1508
ltibia 22.1325
lfoot -9.02111 15.1751
ltoes -9.56131
153
root 0.0795468 18.0447 -30.9798 2.6172 7.88444 -2.11672
lowerback 5.29984 0.758683 0.078647
upperback -0.111111 1.09696 2.47744
thorax -3.13473 0.565184 2.42396
lowerneck -26.2855 0.452756 6.78199
upperneck 29.8567 0.602465 -8.21897
head 14.8001 -0.167121 -4.47324
rclavicle 4.82053e-015 -1.59028e-014
rhumerus -29.7244 -20.6984 -69.5282
rradius 26.2233
rwrist -4.88903
rhand -22.0834 1.89304
rfingers 7.12502
rthumb 4.3282 -28.0427
lclavicle 4.82053e-015 -1.59028e-014
lhumerus -32.6648 16.2019 78.742
lradius 24.2977
lwrist 4.11315
lhand -10.9066 -2.19098
lfingers 7.12502
lthumb 15.1105 27.2374
rfemur -7.51691 -4.85827 20.6073
rtibia 26.1365
rfoot -11.437 -28.6403
rtoes 0.641283
lfemur -7.27795 -3.74758 -14.1538
ltibia 22.1138
lfoot -9.01063 15.292
ltoes -9.52494
154
root 0.0724563 18.0439 -30.9811 2.60264 7.70715 -2.1126
lowerback 5.31949 0.689335 0.110149
upperback -0.0774047 1.00552 2.46585
thorax -3.10629 0.518686 2.40148
lowerneck -26.4845 0.490847 6.91483
upperneck 29.8481 0.600859 -8.26878
head 14.8396 -0.162567 -4.52227
rclavicle 2.07233e-014 1.23246e-014
rhumerus -29.831 -21.2534 -69.1654
rradius 25.9021
rwrist -4.51593
rhand -22.1089 1.91707
rfingers 7.12502
rthumb 4.30365 -28.0192
lclavicle 2.07233e-014 1.23246e-014
lhumerus -32.5729 16.1625 78.5821
lradius 24.5399
lwrist 4.20818
lhand -10.9177 -2.15477
lfingers 7.12502
lthumb 15.0998 27.2745
rfemur -7.54525 -4.76375 20.6206
rtibia 26.1751
rfoot -11.4511 -28.572
rtoes 0.655353
lfemur -7.22404 -3.70605 -14.1447
ltibia 22.1006
lfoot -9.0016 15.4091
ltoes -9.49154
155
root 0.0650688 18.0432 -30.9821 2.59131 7.5537 -2.10622
lowerback 5.32086 0.623359 0.126903
upperback -0.0532979 0.917911 2.46336
thorax -3.07819 0.474481 2.39652
lowerneck -26.6441 0.520515 7.02082
upperneck 29.8157 0.598798 -8.31458
head 14.8597 -0.160673 -4.56273
rclavicle -8.44835e-015 -9.93923e-015
rhumerus -29.9701 -21.816 -68.7578
rradius 25.5782
rwrist -4.12983
rhand -22.1286 1.95476
rfingers 7.12502
rthumb 4.28462 -27.9819
lclavicle -8.44835e-015 -9.93923e-015
lhumerus -32.5062 16.1387 78.4107
lradius 24.7867
lwrist 4.31322
lhand -10.9366 -2.16849
lfingers 7.12502
lthumb 15.0815 27.2621
rfemur -7.57045 -4.67969 20.6344
rtibia 26.2095
rfoot -11.4682 -28.5151
rtoes 0.670264
lfemur -7.17734 -3.67621 -14.136
ltibia 22.0908
lfoot -8.99611 15.5206
ltoes -9.4588
156
root 0.0572965 18.0426 -30.9834 2.58445 7.42237 -2.09686
lowerback 5.31638 0.556226 0.13887
upperback -0.035167 0.828625 2.46427
thorax -3.05308 0.429594 2.39789
lowerneck -26.7967 0.562083 7.13573
upperneck 29.7942 0.615622 -8.37337
head 14.8852 -0.151296 -4.60714
rclavicle 3.39922e-014 4.41302e-014
rhumerus -30.1229 -22.3868 -68.322
rradius 25.2462
rwrist -3.71831
rhand -22.1507 2.01011
rfingers 7.12502
rthumb 4.26325 -27.927
lclavicle 3.39922e-014 4.41302e-014
lhumerus -32.4338 16.1484 78.2152
lradius 25.0163
lwrist 4.44401
lhand -10.9619 -2.25476
lfingers 7.12502
lthumb 15.0572 27.1777
rfemur -7.59705 -4.60224 20.6478
rtibia 26.2424
rfoot -11.4928 -28.469
rtoes 0.68993
lfemur -7.14033 -3.65666 -14.1287
ltibia 22.0817
lfoot -8.9889 15.6258
ltoes -9.40139
157
root 0.0501106 18.0423 -30.9847 2.58797 7.28045 -2.07576
lowerback 5.29803 0.497234 0.150787
upperback -0.0187681 0.749892 2.46156
thorax -3.02239 0.38992 2.39473
lowerneck -26.9547 0.606195 7.23453
upperneck 29.798 0.640545 -8.42231
head 14.9244 -0.138519 -4.64459
rclavicle -3.37934e-015 1.15295e-014
rhumerus -30.2861 -22.9287 -67.8789
rradius 24.9289
rwrist -3.33307
rhand -22.1991 2.0333
rfingers 7.12502
rthumb 4.2165 -27.9047
lclavicle -3.37934e-015 1.15295e-014
lhumerus -32.3529 16.1935 77.9973
lradius 25.2281
lwrist 4.60001
lhand -10.9818 -2.37373
lfingers 7.12502
lthumb 15.0381 27.0601
rfemur -7.6353 -4.54256 20.6426
rtibia 26.2755
rfoot -11.51 -28.3936
rtoes 0.702061
lfemur -7.1089 -3.64667 -14.1397
ltibia 22.0723
lfoot -8.98153 15.7533
ltoes -9.33955
